<?xml version="1.0" encoding="iso-8859-1"?>
<!-- Generator: Adobe Illustrator 17.1.0, SVG Export Plug-In . SVG Version: 6.00 Build 0)  -->
<!DOCTYPE svg PUBLIC "-//W3C//DTD SVG 1.1//EN" "http://www.w3.org/Graphics/SVG/1.1/DTD/svg11.dtd">
<svg version="1.1" id="Capa_1" xmlns="http://www.w3.org/2000/svg" xmlns:xlink="http://www.w3.org/1999/xlink" x="0px" y="0px"
	 viewBox="0 0 563.347 563.347" style="enable-background:new 0 0 563.347 563.347;" xml:space="preserve">
<g>
	<path d="M314.471,306.586l56.748-59.908c4.714-4.988,6.578-11.961,4.986-18.658l-10.761-44.846
		c-2.173-8.982-10.108-15.341-19.345-15.501l-0.32-0.023c-1.401,0-2.809,0.161-4.303,0.492c-0.148,0.022-0.297,0.048-0.462,0.088
		c-5.305,1.269-9.786,4.553-12.623,9.257c-1.073,1.804-1.865,3.771-2.357,5.851c-0.52,2.222-0.655,4.513-0.4,6.825
		c0.018,0.156,0.04,0.307,0.062,0.462l0.04,0.288c0.076,0.543,0.159,1.011,0.259,1.455l7.743,32.248l0.085,0.266
		c0.054,0.151,0.486,1.533-1.059,3.392c-6.013,7.233-26.031,27.593-26.214,27.779c-0.435,0.431-2.013,1.661-3.503,1.661h-66.626
		c-1.621,0-3.346-1.517-3.964-2.193l-24.423-37.039c-0.511-1.037-1.685-3.845-1.685-5.85v-86.459
		c0-11.163-9.082-20.245-20.244-20.245c-10.562,0-19.423,8.248-20.165,18.695c-0.064,0.557-0.095,1.064-0.095,1.55v95.834
		c0,3.966,1.158,7.819,3.349,11.141l42.721,64.823l4.35,6.589c0.584,1.089,1.975,4.167,1.975,6.424
		c0,18.78-0.357,229.983-0.36,232.118c0,11.163,9.081,20.244,20.243,20.244c11.163,0,20.244-9.082,20.244-20.244V420.915
		c-0.003-0.246,0.115-0.99,0.411-1.289c0.05-0.051,0.155-0.157,0.522-0.157h37.785c2.47,0,3.758,1.458,3.798,1.504l26.598,32.494
		c0.135,0.157,1.261,1.592-0.846,3.54c-7.618,7.044-30.49,28.155-30.49,28.154c-3.979,3.67-6.29,8.668-6.506,14.07
		c-0.215,5.401,1.688,10.567,5.359,14.547c3.824,4.142,9.244,6.517,14.871,6.517c5.111,0,9.988-1.908,13.731-5.37l46.651-43.066
		c7.856-7.256,8.704-19.426,1.93-27.706l-58.406-71.372c-0.08-0.102-1.963-2.549-1.963-6.968v-51.234
		C311.814,310.019,314.216,306.904,314.471,306.586z"/>
	<path d="M227.671,201.355c0,24.059,19.573,43.632,43.632,43.632c24.059,0,43.632-19.573,43.632-43.632
		c0-24.059-19.573-43.632-43.632-43.632C247.244,157.723,227.671,177.296,227.671,201.355z"/>
	<path d="M199.254,71.164c5.281,3.726,11.704,4.3,17.377,7.04c9.094,4.392,4.223,14.666,0.659,21.094
		c-3.651,6.585,6.426,12.467,10.073,5.888c3.584-6.464,6.887-13.401,6.146-20.983c-0.67-6.864-5.099-12.736-10.991-16.072
		c-5.119-2.898-11.164-3.416-16.282-6.346c-5.322-3.045-8.234-9.995-0.773-12.813c6.968-2.632,3.95-13.913-3.102-11.249
		c-6.741,2.546-12.861,8.087-13.253,15.771C188.714,61.25,193.211,66.901,199.254,71.164z"/>
	<path d="M296.382,45.452c3.962,7.229-5.02,13.945-9.794,17.714c-5.903,4.66,2.413,12.856,8.249,8.249
		c10.575-8.348,18.991-20.905,10.331-33.986c-3.411-5.152-9.057-8.208-13.085-12.804c-4.83-5.51-4.277-13.278,4.334-12.943
		c7.526,0.293,7.497-11.374,0-11.666c-7.116-0.277-13.532,2.943-17.33,8.983c-4.304,6.844-1.351,15.592,2.932,21.561
		C286.064,36.2,293.063,39.398,296.382,45.452z"/>
	<path d="M334.677,123.324c13.296-1.846,25.484-7.744,26.08-22.858c0.274-6.944-4.249-12.991-4.999-19.761
		c-0.775-6.991,3.432-12.555,10.393-8.106c6.359,4.064,12.205-6.036,5.888-10.073c-6.05-3.867-13.208-4.265-19.575-0.953
		c-6.819,3.547-8.798,12.136-8.373,19.132c0.468,7.694,6.503,15.524,4.44,23.082c-1.824,6.683-11.359,7.511-16.957,8.288
		C324.151,113.106,327.323,124.346,334.677,123.324z"/>
	<path d="M248.216,65.639c6.79,0,12.314-5.524,12.314-12.314c0-6.79-5.524-12.315-12.314-12.315
		c-6.791,0-12.315,5.524-12.315,12.315C235.902,60.116,241.426,65.639,248.216,65.639z"/>
	<path d="M385.187,113.6c-6.79,0-12.314,5.524-12.314,12.314c0,6.79,5.524,12.314,12.314,12.314c6.791,0,12.315-5.524,12.315-12.314
		C397.502,119.124,391.978,113.6,385.187,113.6z"/>
	<path d="M343.498,34.012c6.79,0,12.314-5.524,12.314-12.315c0-6.79-5.524-12.314-12.314-12.314c-6.79,0-12.315,5.524-12.315,12.314
		C331.182,28.487,336.707,34.012,343.498,34.012z"/>
</g>
<g>
</g>
<g>
</g>
<g>
</g>
<g>
</g>
<g>
</g>
<g>
</g>
<g>
</g>
<g>
</g>
<g>
</g>
<g>
</g>
<g>
</g>
<g>
</g>
<g>
</g>
<g>
</g>
<g>
</g>
</svg>
